<svg xmlns="http://www.w3.org/2000/svg" viewBox="0 0 64 80"><title>原创军官肖像 veil</title><rect width="64" height="80" rx="3" fill="#17292a"/><path d="M0 65L64 6V80H0Z" fill="#b1b889" opacity=".16"/><path d="M4 80v-11q4 -10 20 -14h16q17 4 20 14v11" fill="#4d5d51" stroke="#0c1a1b" stroke-width="2"/><path d="M25 48v12l7 7l8 -7V47" fill="#bb9774"/><path d="M18 27q-1 -17 15 -17q16 1 15 17l-3 18q-2 11 -13 12q-11 -3 -13 -15Z" fill="#bb9774" stroke="#786450"/><path d="M19 27q-4 -19 14 -20q18 1 16 22l-5 -9q-12 4 -21 -1l-3 11" fill="#594a39"/><path d="M21 26q3 -12 12 -12q11 0 13 13l-9 -7Z" fill="#3b332b"/><path d="M22 34l6 -1m8 0l6 1" stroke="#4b4639" stroke-width="2"/><path d="M25 37h2m11 0h2" stroke="#1b2926" stroke-width="2"/><path d="M33 37l-2 7h4m-7 6h8" stroke="#896d53" fill="none"/><path d="M22 55l10 12l-10 5l-6 -11m26 -6L32 67l10 5l7 -11" fill="#354a43" stroke="#8f9880"/><path d="M31 66v14" stroke="#a0a48d"/><path d="M9 66l8 -4m30 0l8 4" stroke="#b1b889" stroke-width="3"/><circle cx="33" cy="74" r="1.5" fill="#c4b17a"/><rect x="1" y="1" width="62" height="78" rx="3" fill="none" stroke="#839086"/></svg>