<svg xmlns="http://www.w3.org/2000/svg" width="1120" height="480" viewBox="0 0 1120 480"><style>text{font-family:DejaVu Sans,sans-serif}.counter-id{font-size:5px}.counter-stats{font-size:8px;font-weight:bold}.unit-symbol path,.unit-symbol ellipse{fill:none;stroke:currentColor;stroke-width:1.8}</style><rect width="1120" height="480" fill="#101923"/><text x="34" y="37" fill="#f2e4c9" font-size="22">EASTFRONT / UA-001 MOVEMENT FOUNDATION</text><text x="34" y="65" fill="#b3c1c2" font-size="13">Actual Core MOVE + canonical geometry + Counter V2 + sampled animation coordinator</text><text x="34" y="109" fill="#f2e4c9" font-size="17">BEFORE: immediate destination</text><text x="584" y="109" fill="#f2e4c9" font-size="17">AFTER: source → path → destination</text><g transform="translate(26 118)"><svg x="0" y="0" width="500" height="320" viewBox="-80 -80 310 250"><polygon points="-72.746,-42.000 -109.119,-21.000 -145.492,-42.000 -145.492,-84.000 -109.119,-105.000 -72.746,-84.000" fill="#283b3d" stroke="#52605e" stroke-width=".6"/><polygon points="-36.373,21.000 -72.746,42.000 -109.119,21.000 -109.119,-21.000 -72.746,-42.000 -36.373,-21.000" fill="#283b3d" stroke="#52605e" stroke-width=".6"/><polygon points="0.000,84.000 -36.373,105.000 -72.746,84.000 -72.746,42.000 -36.373,21.000 -0.000,42.000" fill="#283b3d" stroke="#52605e" stroke-width=".6"/><polygon points="36.373,147.000 0.000,168.000 -36.373,147.000 -36.373,105.000 -0.000,84.000 36.373,105.000" fill="#283b3d" stroke="#52605e" stroke-width=".6"/><polygon points="0.000,-42.000 -36.373,-21.000 -72.746,-42.000 -72.746,-84.000 -36.373,-105.000 -0.000,-84.000" fill="#283b3d" stroke="#52605e" stroke-width=".6"/><polygon points="36.373,21.000 0.000,42.000 -36.373,21.000 -36.373,-21.000 -0.000,-42.000 36.373,-21.000" fill="#283b3d" stroke="#52605e" stroke-width=".6"/><polygon points="72.746,84.000 36.373,105.000 0.000,84.000 0.000,42.000 36.373,21.000 72.746,42.000" fill="#283b3d" stroke="#52605e" stroke-width=".6"/><polygon points="109.119,147.000 72.746,168.000 36.373,147.000 36.373,105.000 72.746,84.000 109.119,105.000" fill="#283b3d" stroke="#52605e" stroke-width=".6"/><polygon points="72.746,-42.000 36.373,-21.000 0.000,-42.000 0.000,-84.000 36.373,-105.000 72.746,-84.000" fill="#283b3d" stroke="#52605e" stroke-width=".6"/><polygon points="109.119,21.000 72.746,42.000 36.373,21.000 36.373,-21.000 72.746,-42.000 109.119,-21.000" fill="#283b3d" stroke="#52605e" stroke-width=".6"/><polygon points="145.492,84.000 109.119,105.000 72.746,84.000 72.746,42.000 109.119,21.000 145.492,42.000" fill="#283b3d" stroke="#52605e" stroke-width=".6"/><polygon points="181.865,147.000 145.492,168.000 109.119,147.000 109.119,105.000 145.492,84.000 181.865,105.000" fill="#283b3d" stroke="#52605e" stroke-width=".6"/><polygon points="145.492,-42.000 109.119,-21.000 72.746,-42.000 72.746,-84.000 109.119,-105.000 145.492,-84.000" fill="#283b3d" stroke="#52605e" stroke-width=".6"/><polygon points="181.865,21.000 145.492,42.000 109.119,21.000 109.119,-21.000 145.492,-42.000 181.865,-21.000" fill="#283b3d" stroke="#52605e" stroke-width=".6"/><polygon points="218.238,84.000 181.865,105.000 145.492,84.000 145.492,42.000 181.865,21.000 218.238,42.000" fill="#283b3d" stroke="#52605e" stroke-width=".6"/><polygon points="254.611,147.000 218.238,168.000 181.865,147.000 181.865,105.000 218.238,84.000 254.611,105.000" fill="#283b3d" stroke="#52605e" stroke-width=".6"/><polyline points="0,0 72.74613391789285,0 109.11920087683927,63" fill="none" stroke="#d9c28a" stroke-width="1.3" stroke-dasharray="3 4"/><circle cx="0" cy="0" r="4" fill="#d9c28a"/><polygon points="145.492,84.000 109.119,105.000 72.746,84.000 72.746,42.000 109.119,21.000 145.492,42.000" fill="none" stroke="#d9c28a" stroke-width="1.5"/><g data-unit-id="g" data-hex="1,1" data-anchor-x="109.11920087683927" data-anchor-y="63" data-damage="0" class="counter-visual counter counter-v2 german selected " transform="translate(109.11920087683927 63)" role="button" tabindex="0" aria-label="German Infantry g; Full strength; attack 5, defense 5, movement 3; Supplied; 1 unit(s) in hex" aria-pressed="true"><title>German Infantry g; Full strength; attack 5, defense 5, movement 3; Supplied; 1 unit(s) in hex</title><g class="counter-face" transform="scale(1.045)">
  <rect class="counter-body" x="-23.939999999999998" y="-23.939999999999998" width="47.879999999999995" height="47.879999999999995" rx="3" fill="#344c60" stroke="#f6d797" stroke-width="2.5"/>
  <rect class="counter-inset" x="-21.439999999999998" y="-21.439999999999998" width="42.879999999999995" height="42.879999999999995" rx="1.5" fill="none" stroke="#96b1c4" stroke-opacity=".32" stroke-width=".6"/>
  <path d="M-20.939999999999998 -13.939999999999998H20.939999999999998" stroke="#96b1c4" stroke-opacity=".45"/>
  <text class="counter-country" x="-19.939999999999998" y="-16.939999999999998" fill="#f4e8d5" font-size="5.3" font-weight="800">DE</text>
  <text class="counter-id" x="19.939999999999998" y="-16.939999999999998" text-anchor="end" textLength="2.8" lengthAdjust="spacingAndGlyphs" fill="#dfded6">g</text>
  <g class="unit-symbol" color="#f1e8d5" transform="translate(0 -2) scale(0.9)"><path d="M-10 -9 L10 9 M10 -9 L-10 9"/></g>
  <path d="M-20.939999999999998 11.939999999999998H20.939999999999998V20.939999999999998H-20.939999999999998Z" fill="#0b151f" fill-opacity=".7"/>
  <text x="0" y="18.939999999999998" text-anchor="middle" class="counter-stats" fill="#f5ead7">5-5-3</text>
  
  
  
  
  </g></g></svg></g><g transform="translate(576 118)"><svg x="0" y="0" width="500" height="320" viewBox="-80 -80 310 250"><polygon points="-72.746,-42.000 -109.119,-21.000 -145.492,-42.000 -145.492,-84.000 -109.119,-105.000 -72.746,-84.000" fill="#283b3d" stroke="#52605e" stroke-width=".6"/><polygon points="-36.373,21.000 -72.746,42.000 -109.119,21.000 -109.119,-21.000 -72.746,-42.000 -36.373,-21.000" fill="#283b3d" stroke="#52605e" stroke-width=".6"/><polygon points="0.000,84.000 -36.373,105.000 -72.746,84.000 -72.746,42.000 -36.373,21.000 -0.000,42.000" fill="#283b3d" stroke="#52605e" stroke-width=".6"/><polygon points="36.373,147.000 0.000,168.000 -36.373,147.000 -36.373,105.000 -0.000,84.000 36.373,105.000" fill="#283b3d" stroke="#52605e" stroke-width=".6"/><polygon points="0.000,-42.000 -36.373,-21.000 -72.746,-42.000 -72.746,-84.000 -36.373,-105.000 -0.000,-84.000" fill="#283b3d" stroke="#52605e" stroke-width=".6"/><polygon points="36.373,21.000 0.000,42.000 -36.373,21.000 -36.373,-21.000 -0.000,-42.000 36.373,-21.000" fill="#283b3d" stroke="#52605e" stroke-width=".6"/><polygon points="72.746,84.000 36.373,105.000 0.000,84.000 0.000,42.000 36.373,21.000 72.746,42.000" fill="#283b3d" stroke="#52605e" stroke-width=".6"/><polygon points="109.119,147.000 72.746,168.000 36.373,147.000 36.373,105.000 72.746,84.000 109.119,105.000" fill="#283b3d" stroke="#52605e" stroke-width=".6"/><polygon points="72.746,-42.000 36.373,-21.000 0.000,-42.000 0.000,-84.000 36.373,-105.000 72.746,-84.000" fill="#283b3d" stroke="#52605e" stroke-width=".6"/><polygon points="109.119,21.000 72.746,42.000 36.373,21.000 36.373,-21.000 72.746,-42.000 109.119,-21.000" fill="#283b3d" stroke="#52605e" stroke-width=".6"/><polygon points="145.492,84.000 109.119,105.000 72.746,84.000 72.746,42.000 109.119,21.000 145.492,42.000" fill="#283b3d" stroke="#52605e" stroke-width=".6"/><polygon points="181.865,147.000 145.492,168.000 109.119,147.000 109.119,105.000 145.492,84.000 181.865,105.000" fill="#283b3d" stroke="#52605e" stroke-width=".6"/><polygon points="145.492,-42.000 109.119,-21.000 72.746,-42.000 72.746,-84.000 109.119,-105.000 145.492,-84.000" fill="#283b3d" stroke="#52605e" stroke-width=".6"/><polygon points="181.865,21.000 145.492,42.000 109.119,21.000 109.119,-21.000 145.492,-42.000 181.865,-21.000" fill="#283b3d" stroke="#52605e" stroke-width=".6"/><polygon points="218.238,84.000 181.865,105.000 145.492,84.000 145.492,42.000 181.865,21.000 218.238,42.000" fill="#283b3d" stroke="#52605e" stroke-width=".6"/><polygon points="254.611,147.000 218.238,168.000 181.865,147.000 181.865,105.000 218.238,84.000 254.611,105.000" fill="#283b3d" stroke="#52605e" stroke-width=".6"/><polyline points="0,0 72.74613391789285,0 109.11920087683927,63" fill="none" stroke="#d9c28a" stroke-width="1.3" stroke-dasharray="3 4"/><circle cx="0" cy="0" r="4" fill="#d9c28a"/><polygon points="145.492,84.000 109.119,105.000 72.746,84.000 72.746,42.000 109.119,21.000 145.492,42.000" fill="none" stroke="#d9c28a" stroke-width="1.5"/><g data-unit-id="g" data-hex="1,1" data-anchor-x="109.11920087683927" data-anchor-y="63" data-damage="0" class="counter-visual counter counter-v2 german selected " transform="translate(0.8169731836482107 0)" role="button" tabindex="0" aria-label="German Infantry g; Full strength; attack 5, defense 5, movement 3; Supplied; 1 unit(s) in hex" aria-pressed="true"><title>German Infantry g; Full strength; attack 5, defense 5, movement 3; Supplied; 1 unit(s) in hex</title><g class="counter-face" transform="scale(1.045)">
  <rect class="counter-body" x="-23.939999999999998" y="-23.939999999999998" width="47.879999999999995" height="47.879999999999995" rx="3" fill="#344c60" stroke="#f6d797" stroke-width="2.5"/>
  <rect class="counter-inset" x="-21.439999999999998" y="-21.439999999999998" width="42.879999999999995" height="42.879999999999995" rx="1.5" fill="none" stroke="#96b1c4" stroke-opacity=".32" stroke-width=".6"/>
  <path d="M-20.939999999999998 -13.939999999999998H20.939999999999998" stroke="#96b1c4" stroke-opacity=".45"/>
  <text class="counter-country" x="-19.939999999999998" y="-16.939999999999998" fill="#f4e8d5" font-size="5.3" font-weight="800">DE</text>
  <text class="counter-id" x="19.939999999999998" y="-16.939999999999998" text-anchor="end" textLength="2.8" lengthAdjust="spacingAndGlyphs" fill="#dfded6">g</text>
  <g class="unit-symbol" color="#f1e8d5" transform="translate(0 -2) scale(0.9)"><path d="M-10 -9 L10 9 M10 -9 L-10 9"/></g>
  <path d="M-20.939999999999998 11.939999999999998H20.939999999999998V20.939999999999998H-20.939999999999998Z" fill="#0b151f" fill-opacity=".7"/>
  <text x="0" y="18.939999999999998" text-anchor="middle" class="counter-stats" fill="#f5ead7">5-5-3</text>
  
  
  
  
  </g></g></svg></g><text x="34" y="451" fill="#a7b8b9" font-size="12">Software-rasterized evidence · not a browser capture · Core is already at (1,1) in both panels</text><text x="945" y="451" fill="#e7cf94" font-size="12">16 / 520 ms</text></svg>